<?xml version="1.0" standalone="no"?>
<!DOCTYPE svg PUBLIC "-//W3C//DTD SVG 20010904//EN"
 "http://www.w3.org/TR/2001/REC-SVG-20010904/DTD/svg10.dtd">
<svg version="1.0" xmlns="http://www.w3.org/2000/svg"
 width="96.000000pt" height="96.000000pt" viewBox="0 0 96.000000 96.000000"
 preserveAspectRatio="xMidYMid meet">

<g transform="translate(0.000000,96.000000) scale(0.100000,-0.100000)"
fill="#000000" stroke="none">
<path d="M359 586 c-11 -23 -27 -53 -37 -69 -16 -25 -16 -29 -1 -55 12 -21 13
-34 6 -50 -7 -15 -7 -30 1 -47 10 -21 18 -25 49 -24 21 1 61 -1 89 -5 66 -10
114 15 129 65 6 19 17 46 25 62 10 21 11 33 2 52 -7 14 -12 37 -12 50 0 31
-13 38 -44 24 -28 -13 -109 2 -136 25 -28 24 -51 15 -71 -28z m71 19 c7 -8 19
-15 28 -15 8 0 12 -3 8 -7 -3 -4 13 -16 36 -27 50 -24 59 -51 28 -87 -21 -23
-21 -23 -15 -2 8 31 -8 57 -52 84 -39 22 -63 46 -63 61 0 13 17 9 30 -7z m-36
-26 c13 2 104 -60 110 -75 24 -62 -72 -110 -134 -67 -14 10 -27 15 -30 13 -2
-3 -9 7 -14 22 -8 22 -5 34 17 65 15 22 27 46 27 54 0 11 2 11 9 1 4 -8 11
-13 15 -13z m204 -6 c-1 -10 4 -33 11 -51 11 -26 11 -38 2 -59 -11 -25 -12
-25 -26 -7 -13 17 -13 16 -4 -11 8 -21 8 -38 0 -57 -13 -34 -36 -38 -27 -5 4
16 -1 26 -15 35 -18 11 -18 11 -8 -6 7 -12 9 -27 4 -38 -5 -11 -8 -22 -7 -25
1 -3 -13 -6 -31 -5 -19 1 -31 6 -30 13 2 10 -3 10 -22 1 -45 -20 -127 34 -96
65 6 6 12 7 12 1 1 -5 2 -16 3 -24 0 -8 9 -15 19 -15 9 0 16 4 15 10 -2 5 15
13 37 16 30 5 42 3 51 -10 7 -9 16 -13 20 -8 4 4 3 12 -3 18 -9 9 -3 20 23 44
41 39 46 95 9 102 -22 4 -59 22 -47 22 7 1 21 -3 31 -8 12 -7 25 -5 42 4 33
18 41 18 37 -2z"/>
<path d="M330 494 c0 -10 5 -26 10 -34 8 -11 9 -7 4 15 -8 37 -14 45 -14 19z"/>
<path d="M542 449 c2 -7 10 -15 17 -17 8 -3 12 1 9 9 -2 7 -10 15 -17 17 -8 3
-12 -1 -9 -9z"/>
<path d="M430 390 c0 -5 5 -10 10 -10 6 0 10 5 10 10 0 6 -4 10 -10 10 -5 0
-10 -4 -10 -10z"/>
</g>
</svg>
